<mxfile host="65bd71144e">
    <diagram id="ASTWp4ZXTidoFe2xOwB_" name="1b">
        <mxGraphModel dx="1260" dy="1116" grid="1" gridSize="10" guides="1" tooltips="1" connect="1" arrows="1" fold="1" page="1" pageScale="1" pageWidth="827" pageHeight="1169" math="0" shadow="0">
            <root>
                <mxCell id="0"/>
                <mxCell id="1" parent="0"/>
                <mxCell id="2" value="&lt;span style=&quot;font-size: 20px;&quot;&gt;加入linebot頻道&lt;/span&gt;" style="ellipse;whiteSpace=wrap;html=1;" vertex="1" parent="1">
                    <mxGeometry x="250" y="260" width="260" height="100" as="geometry"/>
                </mxCell>
                <mxCell id="3" value="&lt;span style=&quot;font-size: 20px;&quot;&gt;填寫預約制選單&lt;/span&gt;" style="ellipse;whiteSpace=wrap;html=1;" vertex="1" parent="1">
                    <mxGeometry x="250" y="390" width="260" height="100" as="geometry"/>
                </mxCell>
                <mxCell id="4" value="&lt;span style=&quot;font-size: 20px;&quot;&gt;後台審核&lt;/span&gt;" style="ellipse;whiteSpace=wrap;html=1;" vertex="1" parent="1">
                    <mxGeometry x="250" y="650" width="260" height="100" as="geometry"/>
                </mxCell>
                <mxCell id="5" value="&lt;span style=&quot;font-size: 20px;&quot;&gt;代銷人員安排&lt;/span&gt;" style="ellipse;whiteSpace=wrap;html=1;" vertex="1" parent="1">
                    <mxGeometry x="250" y="780" width="260" height="100" as="geometry"/>
                </mxCell>
                <mxCell id="6" value="&lt;span style=&quot;font-size: 20px;&quot;&gt;現場制line選單&lt;/span&gt;" style="ellipse;whiteSpace=wrap;html=1;" vertex="1" parent="1">
                    <mxGeometry x="240" y="510" width="260" height="100" as="geometry"/>
                </mxCell>
                <mxCell id="23" value="預約型買家" style="shape=umlActor;verticalLabelPosition=bottom;verticalAlign=top;html=1;outlineConnect=0;fontSize=20;" vertex="1" parent="1">
                    <mxGeometry x="60" y="260" width="120" height="170" as="geometry"/>
                </mxCell>
                <mxCell id="25" value="即時參觀型買家&lt;br&gt;" style="shape=umlActor;verticalLabelPosition=bottom;verticalAlign=top;html=1;outlineConnect=0;fontSize=20;" vertex="1" parent="1">
                    <mxGeometry x="60" y="590" width="120" height="170" as="geometry"/>
                </mxCell>
                <mxCell id="26" value="代銷管理者" style="shape=umlActor;verticalLabelPosition=bottom;verticalAlign=top;html=1;outlineConnect=0;fontSize=20;" vertex="1" parent="1">
                    <mxGeometry x="590" y="270" width="120" height="170" as="geometry"/>
                </mxCell>
                <mxCell id="27" value="代銷人員" style="shape=umlActor;verticalLabelPosition=bottom;verticalAlign=top;html=1;outlineConnect=0;fontSize=20;" vertex="1" parent="1">
                    <mxGeometry x="600" y="585" width="120" height="170" as="geometry"/>
                </mxCell>
                <mxCell id="h1haLR8mTQCdpnTIylix-27" value="" style="endArrow=none;html=1;fontSize=20;exitX=1;exitY=0.3333333333333333;exitDx=0;exitDy=0;exitPerimeter=0;entryX=0;entryY=0.5;entryDx=0;entryDy=0;" edge="1" parent="1" source="23" target="2">
                    <mxGeometry width="50" height="50" relative="1" as="geometry">
                        <mxPoint x="510" y="890" as="sourcePoint"/>
                        <mxPoint x="560" y="840" as="targetPoint"/>
                    </mxGeometry>
                </mxCell>
                <mxCell id="h1haLR8mTQCdpnTIylix-28" value="" style="endArrow=none;html=1;fontSize=20;exitX=1;exitY=0.3333333333333333;exitDx=0;exitDy=0;exitPerimeter=0;entryX=0;entryY=0.5;entryDx=0;entryDy=0;" edge="1" parent="1" source="23" target="3">
                    <mxGeometry width="50" height="50" relative="1" as="geometry">
                        <mxPoint x="510" y="890" as="sourcePoint"/>
                        <mxPoint x="560" y="840" as="targetPoint"/>
                    </mxGeometry>
                </mxCell>
                <mxCell id="h1haLR8mTQCdpnTIylix-29" value="" style="endArrow=none;html=1;fontSize=20;exitX=1;exitY=0.3333333333333333;exitDx=0;exitDy=0;exitPerimeter=0;entryX=0;entryY=0.5;entryDx=0;entryDy=0;" edge="1" parent="1" source="23" target="5">
                    <mxGeometry width="50" height="50" relative="1" as="geometry">
                        <mxPoint x="510" y="890" as="sourcePoint"/>
                        <mxPoint x="560" y="840" as="targetPoint"/>
                    </mxGeometry>
                </mxCell>
                <mxCell id="h1haLR8mTQCdpnTIylix-30" value="" style="endArrow=none;html=1;fontSize=20;entryX=0;entryY=0.5;entryDx=0;entryDy=0;" edge="1" parent="1" target="6">
                    <mxGeometry width="50" height="50" relative="1" as="geometry">
                        <mxPoint x="200" y="670" as="sourcePoint"/>
                        <mxPoint x="560" y="840" as="targetPoint"/>
                    </mxGeometry>
                </mxCell>
                <mxCell id="h1haLR8mTQCdpnTIylix-33" value="" style="endArrow=none;html=1;fontSize=20;entryX=0;entryY=0.5;entryDx=0;entryDy=0;" edge="1" parent="1" target="5">
                    <mxGeometry width="50" height="50" relative="1" as="geometry">
                        <mxPoint x="200" y="670" as="sourcePoint"/>
                        <mxPoint x="560" y="840" as="targetPoint"/>
                    </mxGeometry>
                </mxCell>
                <mxCell id="h1haLR8mTQCdpnTIylix-34" value="" style="endArrow=none;html=1;fontSize=20;exitX=1;exitY=0.5;exitDx=0;exitDy=0;" edge="1" parent="1" source="4" target="26">
                    <mxGeometry width="50" height="50" relative="1" as="geometry">
                        <mxPoint x="510" y="890" as="sourcePoint"/>
                        <mxPoint x="590" y="470" as="targetPoint"/>
                    </mxGeometry>
                </mxCell>
                <mxCell id="h1haLR8mTQCdpnTIylix-35" value="" style="endArrow=none;html=1;fontSize=20;exitX=1;exitY=0.5;exitDx=0;exitDy=0;" edge="1" parent="1" source="5">
                    <mxGeometry width="50" height="50" relative="1" as="geometry">
                        <mxPoint x="510" y="890" as="sourcePoint"/>
                        <mxPoint x="620" y="450" as="targetPoint"/>
                    </mxGeometry>
                </mxCell>
                <mxCell id="h1haLR8mTQCdpnTIylix-36" value="" style="endArrow=none;html=1;fontSize=20;entryX=0;entryY=1;entryDx=0;entryDy=0;entryPerimeter=0;exitX=1;exitY=0.5;exitDx=0;exitDy=0;" edge="1" parent="1" source="5" target="27">
                    <mxGeometry width="50" height="50" relative="1" as="geometry">
                        <mxPoint x="510" y="890" as="sourcePoint"/>
                        <mxPoint x="560" y="840" as="targetPoint"/>
                    </mxGeometry>
                </mxCell>
            </root>
        </mxGraphModel>
    </diagram>
    <diagram id="YNBZmlXG5lnyesX3e9GX" name="1d">
        <mxGraphModel dx="445" dy="535" grid="1" gridSize="10" guides="1" tooltips="1" connect="1" arrows="1" fold="1" page="1" pageScale="1" pageWidth="827" pageHeight="1169" math="0" shadow="0">
            <root>
                <mxCell id="0"/>
                <mxCell id="1" parent="0"/>
                <mxCell id="09-O5gCzsO7gnRn7gLmC-1" value="代銷管理者" style="swimlane;fontStyle=0;childLayout=stackLayout;horizontal=1;startSize=30;horizontalStack=0;resizeParent=1;resizeParentMax=0;resizeLast=0;collapsible=1;marginBottom=0;whiteSpace=wrap;html=1;fontSize=20;" vertex="1" parent="1">
                    <mxGeometry x="190" y="320" width="140" height="90" as="geometry"/>
                </mxCell>
                <mxCell id="09-O5gCzsO7gnRn7gLmC-2" value="聯絡方式" style="text;strokeColor=none;fillColor=none;align=left;verticalAlign=middle;spacingLeft=4;spacingRight=4;overflow=hidden;points=[[0,0.5],[1,0.5]];portConstraint=eastwest;rotatable=0;whiteSpace=wrap;html=1;fontSize=20;" vertex="1" parent="09-O5gCzsO7gnRn7gLmC-1">
                    <mxGeometry y="30" width="140" height="30" as="geometry"/>
                </mxCell>
                <mxCell id="09-O5gCzsO7gnRn7gLmC-4" value="審核狀態" style="text;strokeColor=none;fillColor=none;align=left;verticalAlign=middle;spacingLeft=4;spacingRight=4;overflow=hidden;points=[[0,0.5],[1,0.5]];portConstraint=eastwest;rotatable=0;whiteSpace=wrap;html=1;fontSize=20;" vertex="1" parent="09-O5gCzsO7gnRn7gLmC-1">
                    <mxGeometry y="60" width="140" height="30" as="geometry"/>
                </mxCell>
                <mxCell id="09-O5gCzsO7gnRn7gLmC-5" value="買家" style="swimlane;fontStyle=0;childLayout=stackLayout;horizontal=1;startSize=30;horizontalStack=0;resizeParent=1;resizeParentMax=0;resizeLast=0;collapsible=1;marginBottom=0;whiteSpace=wrap;html=1;fontSize=20;" vertex="1" parent="1">
                    <mxGeometry y="520" width="140" height="90" as="geometry"/>
                </mxCell>
                <mxCell id="09-O5gCzsO7gnRn7gLmC-6" value="姓名" style="text;strokeColor=none;fillColor=none;align=left;verticalAlign=middle;spacingLeft=4;spacingRight=4;overflow=hidden;points=[[0,0.5],[1,0.5]];portConstraint=eastwest;rotatable=0;whiteSpace=wrap;html=1;fontSize=20;" vertex="1" parent="09-O5gCzsO7gnRn7gLmC-5">
                    <mxGeometry y="30" width="140" height="30" as="geometry"/>
                </mxCell>
                <mxCell id="09-O5gCzsO7gnRn7gLmC-7" value="聯絡方式" style="text;strokeColor=none;fillColor=none;align=left;verticalAlign=middle;spacingLeft=4;spacingRight=4;overflow=hidden;points=[[0,0.5],[1,0.5]];portConstraint=eastwest;rotatable=0;whiteSpace=wrap;html=1;fontSize=20;" vertex="1" parent="09-O5gCzsO7gnRn7gLmC-5">
                    <mxGeometry y="60" width="140" height="30" as="geometry"/>
                </mxCell>
                <mxCell id="09-O5gCzsO7gnRn7gLmC-10" value="申請表" style="swimlane;fontStyle=0;childLayout=stackLayout;horizontal=1;startSize=30;horizontalStack=0;resizeParent=1;resizeParentMax=0;resizeLast=0;collapsible=1;marginBottom=0;whiteSpace=wrap;html=1;fontSize=20;" vertex="1" parent="1">
                    <mxGeometry x="180" y="510" width="140" height="130" as="geometry"/>
                </mxCell>
                <mxCell id="09-O5gCzsO7gnRn7gLmC-11" value="姓名" style="text;strokeColor=none;fillColor=none;align=left;verticalAlign=middle;spacingLeft=4;spacingRight=4;overflow=hidden;points=[[0,0.5],[1,0.5]];portConstraint=eastwest;rotatable=0;whiteSpace=wrap;html=1;fontSize=20;" vertex="1" parent="09-O5gCzsO7gnRn7gLmC-10">
                    <mxGeometry y="30" width="140" height="30" as="geometry"/>
                </mxCell>
                <mxCell id="09-O5gCzsO7gnRn7gLmC-12" value="聯絡方式" style="text;strokeColor=none;fillColor=none;align=left;verticalAlign=middle;spacingLeft=4;spacingRight=4;overflow=hidden;points=[[0,0.5],[1,0.5]];portConstraint=eastwest;rotatable=0;whiteSpace=wrap;html=1;fontSize=20;" vertex="1" parent="09-O5gCzsO7gnRn7gLmC-10">
                    <mxGeometry y="60" width="140" height="30" as="geometry"/>
                </mxCell>
                <mxCell id="09-O5gCzsO7gnRn7gLmC-13" value="預約日期" style="text;strokeColor=none;fillColor=none;align=left;verticalAlign=middle;spacingLeft=4;spacingRight=4;overflow=hidden;points=[[0,0.5],[1,0.5]];portConstraint=eastwest;rotatable=0;whiteSpace=wrap;html=1;fontSize=20;" vertex="1" parent="09-O5gCzsO7gnRn7gLmC-10">
                    <mxGeometry y="90" width="140" height="40" as="geometry"/>
                </mxCell>
                <mxCell id="09-O5gCzsO7gnRn7gLmC-15" value="代銷人員" style="swimlane;fontStyle=0;childLayout=stackLayout;horizontal=1;startSize=30;horizontalStack=0;resizeParent=1;resizeParentMax=0;resizeLast=0;collapsible=1;marginBottom=0;whiteSpace=wrap;html=1;fontSize=20;" vertex="1" parent="1">
                    <mxGeometry x="400" y="320" width="140" height="90" as="geometry"/>
                </mxCell>
                <mxCell id="09-O5gCzsO7gnRn7gLmC-16" value="姓名" style="text;strokeColor=none;fillColor=none;align=left;verticalAlign=middle;spacingLeft=4;spacingRight=4;overflow=hidden;points=[[0,0.5],[1,0.5]];portConstraint=eastwest;rotatable=0;whiteSpace=wrap;html=1;fontSize=20;" vertex="1" parent="09-O5gCzsO7gnRn7gLmC-15">
                    <mxGeometry y="30" width="140" height="30" as="geometry"/>
                </mxCell>
                <mxCell id="09-O5gCzsO7gnRn7gLmC-17" value="聯絡方式" style="text;strokeColor=none;fillColor=none;align=left;verticalAlign=middle;spacingLeft=4;spacingRight=4;overflow=hidden;points=[[0,0.5],[1,0.5]];portConstraint=eastwest;rotatable=0;whiteSpace=wrap;html=1;fontSize=20;" vertex="1" parent="09-O5gCzsO7gnRn7gLmC-15">
                    <mxGeometry y="60" width="140" height="30" as="geometry"/>
                </mxCell>
                <mxCell id="09-O5gCzsO7gnRn7gLmC-19" value="" style="endArrow=none;html=1;fontSize=20;exitX=1.04;exitY=-0.266;exitDx=0;exitDy=0;exitPerimeter=0;" edge="1" parent="1" source="09-O5gCzsO7gnRn7gLmC-4">
                    <mxGeometry width="50" height="50" relative="1" as="geometry">
                        <mxPoint x="380" y="410" as="sourcePoint"/>
                        <mxPoint x="410" y="370" as="targetPoint"/>
                    </mxGeometry>
                </mxCell>
                <mxCell id="09-O5gCzsO7gnRn7gLmC-20" value="" style="endArrow=none;html=1;fontSize=20;entryX=0.433;entryY=1.067;entryDx=0;entryDy=0;entryPerimeter=0;exitX=0.5;exitY=0;exitDx=0;exitDy=0;" edge="1" parent="1" source="09-O5gCzsO7gnRn7gLmC-10" target="09-O5gCzsO7gnRn7gLmC-4">
                    <mxGeometry width="50" height="50" relative="1" as="geometry">
                        <mxPoint x="380" y="410" as="sourcePoint"/>
                        <mxPoint x="430" y="360" as="targetPoint"/>
                    </mxGeometry>
                </mxCell>
                <mxCell id="09-O5gCzsO7gnRn7gLmC-23" value="" style="endArrow=none;html=1;fontSize=20;exitX=1;exitY=0.5;exitDx=0;exitDy=0;entryX=0.119;entryY=-0.1;entryDx=0;entryDy=0;entryPerimeter=0;" edge="1" parent="1" source="09-O5gCzsO7gnRn7gLmC-6" target="09-O5gCzsO7gnRn7gLmC-12">
                    <mxGeometry width="50" height="50" relative="1" as="geometry">
                        <mxPoint x="240" y="410" as="sourcePoint"/>
                        <mxPoint x="290" y="360" as="targetPoint"/>
                    </mxGeometry>
                </mxCell>
                <mxCell id="09-O5gCzsO7gnRn7gLmC-24" value="審核" style="text;html=1;strokeColor=none;fillColor=none;align=center;verticalAlign=middle;whiteSpace=wrap;rounded=0;fontSize=20;" vertex="1" parent="1">
                    <mxGeometry x="180" y="420" width="60" height="30" as="geometry"/>
                </mxCell>
                <mxCell id="09-O5gCzsO7gnRn7gLmC-43" value="" style="edgeStyle=none;html=1;fontSize=20;" edge="1" parent="1" source="09-O5gCzsO7gnRn7gLmC-42" target="09-O5gCzsO7gnRn7gLmC-17">
                    <mxGeometry relative="1" as="geometry"/>
                </mxCell>
                <mxCell id="09-O5gCzsO7gnRn7gLmC-42" value="安排" style="text;html=1;strokeColor=none;fillColor=none;align=center;verticalAlign=middle;whiteSpace=wrap;rounded=0;fontSize=20;" vertex="1" parent="1">
                    <mxGeometry x="340" y="330" width="60" height="30" as="geometry"/>
                </mxCell>
                <mxCell id="09-O5gCzsO7gnRn7gLmC-44" value="填寫" style="text;html=1;strokeColor=none;fillColor=none;align=center;verticalAlign=middle;whiteSpace=wrap;rounded=0;fontSize=20;" vertex="1" parent="1">
                    <mxGeometry x="130" y="530" width="60" height="30" as="geometry"/>
                </mxCell>
            </root>
        </mxGraphModel>
    </diagram>
    <diagram id="AscKv5OJ8TlSJ3xA4gjY" name="2b">
        <mxGraphModel dx="788" dy="1035" grid="1" gridSize="10" guides="1" tooltips="1" connect="1" arrows="1" fold="1" page="1" pageScale="1" pageWidth="827" pageHeight="1169" math="0" shadow="0">
            <root>
                <mxCell id="0"/>
                <mxCell id="1" parent="0"/>
                <mxCell id="xE4O1jJqweAGygQqLAEk-1" value="&lt;span style=&quot;font-size: 20px;&quot;&gt;網站架構&lt;/span&gt;" style="ellipse;whiteSpace=wrap;html=1;" vertex="1" parent="1">
                    <mxGeometry x="250" y="260" width="260" height="100" as="geometry"/>
                </mxCell>
                <mxCell id="xE4O1jJqweAGygQqLAEk-2" value="&lt;span style=&quot;font-size: 20px;&quot;&gt;申請者完成填寫資料&lt;/span&gt;" style="ellipse;whiteSpace=wrap;html=1;" vertex="1" parent="1">
                    <mxGeometry x="250" y="390" width="260" height="100" as="geometry"/>
                </mxCell>
                <mxCell id="xE4O1jJqweAGygQqLAEk-3" value="&lt;span style=&quot;font-size: 20px;&quot;&gt;金融機構審核&lt;/span&gt;" style="ellipse;whiteSpace=wrap;html=1;" vertex="1" parent="1">
                    <mxGeometry x="250" y="650" width="260" height="100" as="geometry"/>
                </mxCell>
                <mxCell id="xE4O1jJqweAGygQqLAEk-4" value="&lt;span style=&quot;font-size: 20px;&quot;&gt;健保局審核&lt;/span&gt;" style="ellipse;whiteSpace=wrap;html=1;" vertex="1" parent="1">
                    <mxGeometry x="250" y="780" width="260" height="100" as="geometry"/>
                </mxCell>
                <mxCell id="xE4O1jJqweAGygQqLAEk-5" value="&lt;span style=&quot;font-size: 20px;&quot;&gt;政府機構進行審核&lt;/span&gt;" style="ellipse;whiteSpace=wrap;html=1;" vertex="1" parent="1">
                    <mxGeometry x="240" y="510" width="260" height="100" as="geometry"/>
                </mxCell>
                <mxCell id="xE4O1jJqweAGygQqLAEk-6" value="&lt;div style=&quot;color: rgb(204, 204, 204); background-color: rgb(31, 31, 31); font-family: Menlo, Monaco, &amp;quot;Courier New&amp;quot;, monospace; line-height: 18px;&quot;&gt;政府人員將合格資料寫成json格式後交給其他金融單位負責&lt;/div&gt;" style="ellipse;whiteSpace=wrap;html=1;" vertex="1" parent="1">
                    <mxGeometry x="250" y="900" width="260" height="100" as="geometry"/>
                </mxCell>
                <mxCell id="xE4O1jJqweAGygQqLAEk-7" value="申請者" style="shape=umlActor;verticalLabelPosition=bottom;verticalAlign=top;html=1;outlineConnect=0;fontSize=20;" vertex="1" parent="1">
                    <mxGeometry x="60" y="260" width="120" height="170" as="geometry"/>
                </mxCell>
                <mxCell id="xE4O1jJqweAGygQqLAEk-8" value="網站設計師" style="shape=umlActor;verticalLabelPosition=bottom;verticalAlign=top;html=1;outlineConnect=0;fontSize=20;" vertex="1" parent="1">
                    <mxGeometry x="60" y="590" width="120" height="170" as="geometry"/>
                </mxCell>
                <mxCell id="xE4O1jJqweAGygQqLAEk-9" value="政府機構" style="shape=umlActor;verticalLabelPosition=bottom;verticalAlign=top;html=1;outlineConnect=0;fontSize=20;" vertex="1" parent="1">
                    <mxGeometry x="590" y="270" width="120" height="170" as="geometry"/>
                </mxCell>
                <mxCell id="xE4O1jJqweAGygQqLAEk-10" value="金融機構" style="shape=umlActor;verticalLabelPosition=bottom;verticalAlign=top;html=1;outlineConnect=0;fontSize=20;" vertex="1" parent="1">
                    <mxGeometry x="600" y="520" width="120" height="170" as="geometry"/>
                </mxCell>
                <mxCell id="xE4O1jJqweAGygQqLAEk-11" value="健保局" style="shape=umlActor;verticalLabelPosition=bottom;verticalAlign=top;html=1;outlineConnect=0;fontSize=20;" vertex="1" parent="1">
                    <mxGeometry x="600" y="770" width="120" height="170" as="geometry"/>
                </mxCell>
                <mxCell id="xE4O1jJqweAGygQqLAEk-12" value="" style="endArrow=none;html=1;fontSize=20;entryX=0;entryY=0.5;entryDx=0;entryDy=0;" edge="1" parent="1" source="xE4O1jJqweAGygQqLAEk-8" target="xE4O1jJqweAGygQqLAEk-1">
                    <mxGeometry width="50" height="50" relative="1" as="geometry">
                        <mxPoint x="290" y="820" as="sourcePoint"/>
                        <mxPoint x="340" y="770" as="targetPoint"/>
                    </mxGeometry>
                </mxCell>
                <mxCell id="xE4O1jJqweAGygQqLAEk-13" value="" style="endArrow=none;html=1;fontSize=20;entryX=0;entryY=0.5;entryDx=0;entryDy=0;" edge="1" parent="1" target="xE4O1jJqweAGygQqLAEk-2">
                    <mxGeometry width="50" height="50" relative="1" as="geometry">
                        <mxPoint x="190" y="330" as="sourcePoint"/>
                        <mxPoint x="340" y="770" as="targetPoint"/>
                    </mxGeometry>
                </mxCell>
                <mxCell id="xE4O1jJqweAGygQqLAEk-14" value="" style="endArrow=none;html=1;fontSize=20;entryX=0;entryY=1;entryDx=0;entryDy=0;entryPerimeter=0;exitX=1;exitY=0.5;exitDx=0;exitDy=0;" edge="1" parent="1" source="xE4O1jJqweAGygQqLAEk-5" target="xE4O1jJqweAGygQqLAEk-9">
                    <mxGeometry width="50" height="50" relative="1" as="geometry">
                        <mxPoint x="420" y="820" as="sourcePoint"/>
                        <mxPoint x="470" y="770" as="targetPoint"/>
                    </mxGeometry>
                </mxCell>
                <mxCell id="xE4O1jJqweAGygQqLAEk-15" value="" style="endArrow=none;html=1;fontSize=20;exitX=1;exitY=0.5;exitDx=0;exitDy=0;" edge="1" parent="1" source="xE4O1jJqweAGygQqLAEk-3" target="xE4O1jJqweAGygQqLAEk-10">
                    <mxGeometry width="50" height="50" relative="1" as="geometry">
                        <mxPoint x="420" y="820" as="sourcePoint"/>
                        <mxPoint x="470" y="770" as="targetPoint"/>
                    </mxGeometry>
                </mxCell>
                <mxCell id="xE4O1jJqweAGygQqLAEk-16" value="" style="endArrow=none;html=1;fontSize=20;entryX=0;entryY=1;entryDx=0;entryDy=0;entryPerimeter=0;exitX=1;exitY=0.5;exitDx=0;exitDy=0;" edge="1" parent="1" source="xE4O1jJqweAGygQqLAEk-4" target="xE4O1jJqweAGygQqLAEk-11">
                    <mxGeometry width="50" height="50" relative="1" as="geometry">
                        <mxPoint x="420" y="820" as="sourcePoint"/>
                        <mxPoint x="470" y="770" as="targetPoint"/>
                    </mxGeometry>
                </mxCell>
                <mxCell id="xE4O1jJqweAGygQqLAEk-17" value="" style="endArrow=none;html=1;fontSize=20;exitX=1;exitY=0.5;exitDx=0;exitDy=0;entryX=0;entryY=1;entryDx=0;entryDy=0;entryPerimeter=0;" edge="1" parent="1" source="xE4O1jJqweAGygQqLAEk-6" target="xE4O1jJqweAGygQqLAEk-9">
                    <mxGeometry width="50" height="50" relative="1" as="geometry">
                        <mxPoint x="420" y="820" as="sourcePoint"/>
                        <mxPoint x="470" y="770" as="targetPoint"/>
                    </mxGeometry>
                </mxCell>
            </root>
        </mxGraphModel>
    </diagram>
    <diagram id="jKp8lnFoO_ODNvvGuu6S" name="2d">
        <mxGraphModel dx="1102" dy="787" grid="1" gridSize="10" guides="1" tooltips="1" connect="1" arrows="1" fold="1" page="1" pageScale="1" pageWidth="827" pageHeight="1169" math="0" shadow="0">
            <root>
                <mxCell id="0"/>
                <mxCell id="1" parent="0"/>
            </root>
        </mxGraphModel>
    </diagram>
</mxfile>